<svg class="img-fluid" id="outputsvg" xmlns="http://www.w3.org/2000/svg" viewBox="0 0 7700 7700"><g id="l6bNXYSmQuxpiP9KVUKSRpp" fill="rgb(0,173,181)" style="transform: none;"><g style="transform: none;"><path id="p7m0BgcQy" d="M1072 7248 c46 -57 86 -107 90 -113 4 -5 25 -31 47 -56 23 -25 41 -50 41 -55 0 -5 12 -20 26 -34 15 -13 34 -36 42 -50 9 -14 47 -62 84 -106 38 -45 68 -87 68 -93 0 -6 4 -11 9 -11 4 0 34 -34 66 -75 32 -42 65 -81 75 -88 9 -7 21 -19 26 -29 5 -9 30 -39 56 -66 25 -28 52 -59 60 -70 26 -38 187 -210 396 -423 118 -119 222 -230 232 -246 10 -17 28 -39 41 -49 13 -11 67 -63 119 -117 l94 -98 -42 -41 -42 -42 -402 400 c-361 358 -587 570 -718 674 -24 19 -52 43 -62 53 -10 9 -21 17 -25 17 -4 0 -27 17 -52 38 -25 21 -89 69 -141 107 -52 38 -100 73 -106 79 -6 6 -21 18 -34 26 -72 50 -155 113 -158 121 -2 5 -9 9 -15 9 -7 0 -38 20 -69 45 -32 25 -62 45 -67 45 -5 0 -11 4 -13 9 -1 5 -32 28 -67 51 l-63 42 -30 -30 -30 -30 33 -47 c19 -27 54 -77 79 -112 93 -131 107 -150 175 -243 38 -52 77 -105 85 -116 8 -12 35 -48 60 -79 25 -32 52 -68 60 -80 33 -49 284 -347 375 -445 90 -97 394 -412 708 -735 70 -72 127 -135 127 -141 0 -15 -67 -77 -79 -73 -5 2 -149 141 -320 309 -170 168 -357 348 -415 400 -59 52 -139 125 -179 161 -40 36 -144 126 -232 199 -88 73 -167 139 -175 147 -21 19 -169 136 -188 148 -9 6 -27 20 -41 33 -14 12 -29 22 -33 22 -6 0 -149 114 -258 206 -25 21 -8 0 38 -47 45 -46 82 -88 82 -93 0 -4 29 -39 63 -76 35 -38 83 -95 107 -127 24 -32 51 -65 59 -73 9 -8 82 -94 162 -190 81 -96 161 -191 178 -210 17 -19 59 -68 93 -108 114 -132 330 -364 536 -577 309 -318 312 -321 312 -337 0 -15 -40 -58 -55 -58 -5 0 -48 37 -95 83 -152 144 -312 291 -415 381 -55 49 -117 103 -137 122 -21 19 -41 34 -44 34 -4 0 -43 30 -88 68 -44 37 -92 75 -106 84 -14 8 -37 27 -50 42 -14 14 -29 26 -34 26 -6 0 -21 11 -35 24 -15 13 -75 61 -136 106 -60 46 -114 89 -118 97 -4 7 -13 13 -19 13 -7 0 -39 21 -72 47 -68 52 -71 54 -141 115 -32 27 -16 7 44 -57 51 -55 100 -111 109 -125 9 -14 35 -43 58 -65 22 -22 74 -78 115 -125 41 -47 77 -87 82 -88 4 -2 18 -19 30 -37 29 -43 298 -325 635 -665 267 -270 272 -276 263 -305 -24 -73 -18 -163 14 -220 36 -63 52 -84 84 -106 43 -29 113 -49 148 -43 30 6 54 -11 46 -32 -9 -25 18 -132 38 -150 11 -9 19 -23 19 -30 0 -10 17 -24 80 -63 51 -31 107 -35 206 -15 l31 6 -5 -50 c-5 -55 17 -137 51 -187 34 -49 175 -192 1142 -1160 1087 -1088 1254 -1250 1292 -1258 15 -3 45 -21 65 -39 24 -22 64 -41 115 -57 43 -13 103 -32 133 -42 30 -11 96 -33 145 -50 50 -17 97 -33 105 -36 8 -3 20 -7 25 -9 27 -6 195 -68 232 -85 23 -10 47 -19 53 -19 22 0 436 -143 447 -154 4 -3 14 -6 23 -6 15 0 134 -36 255 -76 28 -10 73 -27 100 -40 28 -12 63 -26 78 -29 15 -4 27 -11 27 -17 0 -5 4 -7 8 -4 5 3 67 -15 138 -40 71 -25 136 -47 144 -49 8 -2 71 -25 140 -50 69 -25 132 -45 140 -45 8 -1 32 -7 52 -14 l38 -14 -7 27 c-3 14 -15 51 -26 81 -10 30 -23 69 -27 85 -13 46 -96 279 -108 302 -6 11 -13 31 -16 44 -3 13 -10 38 -16 54 -19 53 -111 330 -114 343 -1 7 -8 18 -14 24 -7 7 -12 21 -12 33 0 24 -20 90 -49 163 -12 30 -19 57 -16 62 3 5 1 10 -3 12 -8 3 -81 202 -139 383 -15 44 -39 116 -55 160 -29 81 -178 522 -183 540 -7 29 -39 91 -51 98 -8 4 -27 36 -43 70 -27 56 -135 167 -1208 1238 -1293 1291 -1228 1232 -1348 1231 -30 0 -64 -3 -76 -7 -20 -7 -20 -5 -13 27 15 60 10 160 -10 197 -42 79 -123 131 -221 140 l-60 6 -2 61 c-1 71 -20 114 -72 164 -67 65 -88 74 -182 77 -50 1 -100 -3 -118 -10 l-32 -12 -183 185 c-216 219 -609 604 -652 640 -17 14 -66 59 -110 100 -133 124 -245 224 -324 287 -41 34 -103 88 -138 122 -68 66 -99 85 -40 24 20 -21 47 -52 60 -70 35 -48 345 -434 402 -499 20 -23 36 -45 36 -50 0 -5 14 -22 30 -38 17 -16 30 -34 30 -39 0 -5 13 -24 29 -41 16 -17 87 -98 158 -181 70 -82 217 -243 325 -357 109 -113 198 -211 198 -216 0 -5 -16 -24 -36 -41 -30 -27 -38 -30 -52 -19 -9 7 -138 135 -287 283 -148 149 -286 282 -305 297 -19 15 -73 63 -119 108 -46 44 -92 87 -103 94 -11 8 -48 41 -83 73 -67 62 -164 146 -285 246 -41 34 -77 64 -80 68 -3 3 -32 27 -65 54 -88 70 -156 127 -180 150 -11 11 -40 35 -65 54 -25 19 -49 40 -53 48 -4 7 -20 19 -35 27 -15 8 -58 46 -97 85 -38 39 -73 71 -78 71 -4 0 30 -46 75 -102z m2198 -1568 c16 -16 30 -34 30 -40 0 -16 -1279 -1299 -1313 -1316 -46 -25 -87 14 -73 69 6 25 1295 1317 1313 1317 7 0 26 -13 43 -30z m295 -288 c50 -42 74 -15 -628 -718 -620 -623 -664 -665 -687 -656 -14 5 -31 21 -38 35 -11 22 -10 31 2 54 17 32 1273 1288 1296 1296 25 9 34 7 55 -11z m760 -1159 l710 -708 -64 -3 -65 -3 -680 680 -680 680 29 31 c16 16 31 30 35 30 3 0 325 -318 715 -707z m-920 -835 c362 -365 663 -672 670 -683 7 -11 16 -54 20 -95 l7 -75 -721 720 -721 720 37 37 c20 21 40 38 44 38 4 0 303 -298 664 -662z m1655 -174 c45 -8 90 -19 99 -24 9 -4 27 -13 41 -19 59 -28 83 -45 142 -104 64 -63 148 -180 148 -207 1 -8 9 -33 20 -55 43 -89 18 -297 -53 -443 -71 -146 -253 -274 -433 -305 -83 -14 -209 12 -316 65 -110 55 -226 167 -273 261 -46 95 -67 183 -69 287 -2 146 51 254 188 388 153 150 301 195 506 156z m975 -722 c-2 -2 -26 -1 -54 3 -43 6 -59 15 -116 67 l-65 60 0 56 0 57 120 -120 c65 -65 118 -121 115 -123z m315 -197 c0 -14 4 -33 9 -43 18 -34 41 -90 41 -101 0 -6 14 -40 30 -74 17 -35 30 -69 30 -76 0 -6 4 -19 9 -29 5 -9 13 -28 19 -42 5 -14 17 -41 25 -60 9 -19 19 -48 23 -65 4 -16 11 -35 16 -41 5 -7 21 -47 36 -90 16 -44 33 -88 39 -99 19 -35 63 -148 63 -162 0 -8 9 -33 20 -55 11 -23 20 -47 20 -53 0 -6 11 -35 26 -64 29 -60 28 -94 -1 -100 -82 -15 -295 -254 -295 -330 0 -18 -12 -15 -137 34 -76 29 -235 92 -353 140 -118 48 -307 125 -420 171 -128 52 -219 84 -242 84 l-37 0 24 45 c34 65 48 145 43 256 l-4 98 131 3 c130 3 132 3 211 42 105 52 188 134 237 236 44 89 57 152 57 271 l0 88 46 -16 c71 -24 193 -12 264 26 68 37 70 37 70 6z m-1342 -518 c61 -57 127 -189 120 -242 -3 -23 -16 -12 -151 122 l-147 148 77 -3 c62 -3 83 -8 101 -25z"></path><path id="ptvziKx8a" d="M4814 3097 c-33 -7 -81 -25 -106 -39 -62 -37 -149 -133 -181 -202 -25 -52 -27 -66 -27 -189 0 -177 21 -245 101 -332 111 -119 227 -162 408 -153 77 3 94 8 151 40 85 47 190 157 216 223 16 42 19 76 19 205 0 152 -1 156 -30 214 -40 79 -135 175 -210 211 -54 27 -71 30 -170 32 -60 1 -137 -4 -171 -10z m244 -711 c16 -16 16 -18 -8 -37 -58 -45 -79 -50 -124 -31 -56 25 -71 44 -56 73 11 20 18 21 92 17 57 -3 84 -10 96 -22z"></path><path id="pWUmC8HCc" d="M3995 6959 c34 -40 65 -105 101 -210 18 -55 36 -110 39 -122 3 -12 12 -51 20 -87 16 -68 22 -303 10 -376 -16 -97 -30 -155 -63 -244 -3 -8 -6 -20 -7 -26 -3 -13 -70 -148 -88 -179 -33 -54 -70 -105 -78 -105 -4 0 -10 -8 -13 -18 -5 -13 179 -203 749 -777 716 -720 755 -758 749 -720 -3 22 -17 94 -29 160 -13 66 -23 127 -23 135 1 8 -7 43 -16 76 -9 34 -18 79 -21 100 -3 22 -9 55 -15 74 -6 19 -19 91 -31 160 -11 69 -24 141 -29 160 -5 19 -11 53 -14 75 -3 22 -12 72 -19 110 -8 39 -20 97 -25 130 -6 33 -27 137 -46 231 -20 93 -38 186 -40 205 -3 19 -14 74 -24 123 l-19 88 -509 507 c-280 279 -525 518 -544 531 l-35 24 20 -25z"></path><path id="piBxBIYWY" d="M1994 3672 c-16 -16 -51 -42 -79 -58 -27 -16 -59 -34 -70 -41 -11 -7 -31 -17 -45 -24 -14 -6 -33 -15 -42 -20 -38 -19 -161 -58 -205 -65 -27 -4 -59 -11 -73 -16 -33 -12 -245 -12 -317 1 -32 6 -74 12 -93 15 -76 9 -120 19 -120 28 0 5 -4 7 -9 4 -11 -7 -235 81 -239 95 -2 5 -9 9 -17 9 -7 0 -18 6 -24 14 -6 8 -21 16 -33 20 -12 3 219 -236 513 -530 434 -434 541 -536 565 -539 17 -2 77 -15 135 -29 57 -13 122 -28 144 -32 22 -3 47 -10 56 -15 8 -4 44 -11 79 -14 35 -4 80 -13 99 -20 20 -7 43 -13 51 -13 27 0 193 -33 209 -41 9 -5 39 -12 66 -16 28 -4 75 -13 105 -21 30 -7 73 -16 95 -19 58 -7 97 -15 120 -25 11 -4 59 -13 108 -20 48 -7 87 -16 87 -22 0 -5 4 -7 9 -4 4 3 77 -8 162 -24 85 -17 171 -33 193 -35 21 -3 46 -10 56 -15 9 -5 20 -7 22 -4 3 2 17 0 32 -5 14 -6 26 -8 26 -6 0 11 -1513 1515 -1524 1515 -7 0 -25 -13 -42 -28z"></path></g></g><g id="l29rVsiFzawg7YwleivW8f1" fill="rgb(255,255,255)" style="transform: none;"><g style="transform: none;"><path id="pHMFIc0pd" d="M1620 7281 c0 -11 29 -35 35 -29 2 2 -4 12 -15 21 -11 9 -20 13 -20 8z"></path><path id="pHxmjONKE" d="M2538 5093 c-356 -356 -652 -659 -659 -675 -14 -35 -4 -93 22 -119 23 -23 78 -25 117 -5 15 8 316 304 669 659 720 723 689 685 618 752 -29 28 -44 35 -78 35 l-41 0 -648 -647z"></path><path id="pFY8plmZy" d="M3505 5438 c-36 -8 -109 -77 -673 -641 -348 -348 -640 -645 -649 -661 -18 -35 -13 -110 10 -133 8 -8 36 -18 62 -21 l48 -5 664 666 664 666 -2 45 c-2 35 -8 49 -28 64 -37 27 -51 30 -96 20z"></path><path id="pVhIr6qTJ" d="M3548 4941 l-63 -60 695 -695 695 -694 100 -5 c55 -4 116 -9 135 -13 32 -7 14 14 -194 229 -126 130 -471 476 -767 768 l-539 531 -62 -61z"></path><path id="p1Bmgpqt1n" d="M2672 4057 c-34 -34 -62 -67 -62 -72 0 -15 1538 -1550 1546 -1543 3 4 -1 35 -9 70 -9 35 -19 99 -23 143 l-6 80 -171 175 c-289 295 -1202 1210 -1207 1210 -3 0 -34 -28 -68 -63z"></path><path id="p7CN1Fz70" d="M4885 3273 c-177 -32 -252 -68 -361 -174 -146 -143 -189 -240 -188 -419 1 -208 54 -341 183 -462 94 -89 187 -140 302 -168 191 -46 352 -9 520 118 103 78 160 169 198 317 29 109 29 302 1 360 -11 22 -19 47 -20 55 0 27 -84 144 -148 207 -59 59 -83 76 -142 104 -14 6 -32 15 -42 20 -38 19 -259 50 -303 42z m240 -228 c75 -36 170 -131 210 -211 29 -56 30 -65 30 -184 0 -161 -14 -200 -104 -293 -121 -126 -224 -164 -378 -137 -90 15 -176 64 -252 145 -76 82 -101 158 -101 302 0 90 3 109 27 159 32 69 119 165 181 202 101 59 283 67 387 17z"></path><path id="pxcOlTdEQ" d="M4836 2415 c-32 -49 -7 -99 67 -130 64 -27 101 -20 175 33 38 28 43 69 11 98 -17 15 -40 19 -128 22 -107 4 -107 4 -125 -23z"></path><path id="p4drNJD4Q" d="M5766 2726 c6 -118 7 -122 38 -154 80 -86 97 -94 217 -101 60 -3 109 -4 109 -1 0 2 -83 88 -185 190 l-185 187 6 -121z"></path><path id="pgggcaBu6" d="M6468 2642 c-12 -168 -145 -315 -311 -344 -50 -9 -69 -8 -116 7 -31 10 -65 24 -76 31 -11 8 -23 14 -27 14 -5 0 -5 -44 -2 -97 8 -123 -5 -196 -53 -293 -50 -102 -133 -184 -238 -236 l-79 -39 -147 0 -146 0 20 -55 c15 -44 18 -71 14 -135 -8 -116 -30 -169 -98 -238 -77 -76 -145 -107 -240 -107 l-70 0 20 -21 c18 -20 28 -21 118 -17 87 4 105 8 158 38 33 18 69 41 81 51 11 11 24 19 30 19 5 0 101 -38 214 -84 113 -46 313 -127 445 -181 337 -137 497 -196 512 -191 7 3 13 15 13 26 0 76 225 330 293 330 7 0 21 8 30 18 14 16 15 23 3 64 -8 25 -24 65 -35 89 -12 23 -21 48 -21 54 0 6 -9 30 -20 53 -11 22 -20 47 -20 55 0 14 -44 127 -63 162 -6 11 -23 55 -39 99 -15 43 -31 83 -36 90 -5 6 -12 25 -16 41 -4 17 -14 46 -23 65 -8 19 -20 46 -25 60 -6 14 -14 33 -19 42 -5 10 -9 23 -9 29 0 7 -13 41 -30 76 -16 34 -30 68 -30 74 0 11 -23 67 -41 102 -8 14 -4 25 16 48 14 17 25 35 25 40 0 5 12 27 26 49 51 76 73 249 35 269 -17 9 -19 5 -23 -57z"></path><path id="pYgaP6hDH" d="M4740 1854 c0 -5 92 -101 205 -214 158 -158 206 -200 211 -187 3 9 4 54 3 99 -4 95 -32 161 -99 240 l-39 45 -93 6 c-51 4 -114 10 -140 13 -27 4 -48 3 -48 -2z"></path></g></g></svg>