<svg width="352" height="252" viewBox="0 0 352 252" fill="none" xmlns="http://www.w3.org/2000/svg">
<rect width="352" height="252" rx="10" fill="#F5F5F5"/>
<circle cx="197" cy="154" r="5" fill="#B50800"/>
<path d="M213.636 156.364H215.182L216.477 158.068L216.818 158.523L218.75 161.091H217.205L215.932 159.386L215.614 158.955L213.636 156.364ZM219.227 154.182C219.227 155.409 219.006 156.47 218.562 157.364C218.119 158.258 217.511 158.947 216.739 159.432C215.966 159.917 215.083 160.159 214.091 160.159C213.098 160.159 212.216 159.917 211.443 159.432C210.67 158.947 210.063 158.258 209.619 157.364C209.176 156.47 208.955 155.409 208.955 154.182C208.955 152.955 209.176 151.894 209.619 151C210.063 150.106 210.67 149.417 211.443 148.932C212.216 148.447 213.098 148.205 214.091 148.205C215.083 148.205 215.966 148.447 216.739 148.932C217.511 149.417 218.119 150.106 218.562 151C219.006 151.894 219.227 152.955 219.227 154.182ZM217.864 154.182C217.864 153.174 217.695 152.324 217.358 151.631C217.025 150.938 216.572 150.413 216 150.057C215.432 149.701 214.795 149.523 214.091 149.523C213.386 149.523 212.748 149.701 212.176 150.057C211.608 150.413 211.155 150.938 210.818 151.631C210.485 152.324 210.318 153.174 210.318 154.182C210.318 155.189 210.485 156.04 210.818 156.733C211.155 157.426 211.608 157.951 212.176 158.307C212.748 158.663 213.386 158.841 214.091 158.841C214.795 158.841 215.432 158.663 216 158.307C216.572 157.951 217.025 157.426 217.358 156.733C217.695 156.04 217.864 155.189 217.864 154.182ZM226.915 156.432V151.273H228.256V160H226.915V158.523H226.824C226.619 158.966 226.301 159.343 225.869 159.653C225.438 159.96 224.892 160.114 224.233 160.114C223.688 160.114 223.203 159.994 222.778 159.756C222.354 159.513 222.021 159.15 221.778 158.665C221.536 158.176 221.415 157.561 221.415 156.818V151.273H222.756V156.727C222.756 157.364 222.934 157.871 223.29 158.25C223.65 158.629 224.108 158.818 224.665 158.818C224.998 158.818 225.337 158.733 225.682 158.562C226.03 158.392 226.322 158.131 226.557 157.778C226.795 157.426 226.915 156.977 226.915 156.432ZM230.712 160V151.273H232.053V160H230.712ZM231.393 149.818C231.132 149.818 230.907 149.729 230.717 149.551C230.532 149.373 230.439 149.159 230.439 148.909C230.439 148.659 230.532 148.445 230.717 148.267C230.907 148.089 231.132 148 231.393 148C231.655 148 231.878 148.089 232.064 148.267C232.253 148.445 232.348 148.659 232.348 148.909C232.348 149.159 232.253 149.373 232.064 149.551C231.878 149.729 231.655 149.818 231.393 149.818ZM234.259 160V158.977L239.213 152.614V152.523H234.418V151.273H240.94V152.341L236.122 158.659V158.75H241.099V160H234.259ZM244.506 148.364V160H243.165V148.364H244.506ZM250.621 160.182C249.78 160.182 249.054 159.996 248.445 159.625C247.839 159.25 247.371 158.727 247.041 158.057C246.715 157.383 246.553 156.598 246.553 155.705C246.553 154.811 246.715 154.023 247.041 153.341C247.371 152.655 247.829 152.121 248.416 151.739C249.007 151.352 249.696 151.159 250.484 151.159C250.939 151.159 251.388 151.235 251.831 151.386C252.274 151.538 252.678 151.784 253.041 152.125C253.405 152.462 253.695 152.909 253.911 153.466C254.126 154.023 254.234 154.708 254.234 155.523V156.091H247.507V154.932H252.871C252.871 154.439 252.772 154 252.575 153.614C252.382 153.227 252.106 152.922 251.746 152.699C251.39 152.475 250.969 152.364 250.484 152.364C249.95 152.364 249.488 152.496 249.098 152.761C248.712 153.023 248.414 153.364 248.206 153.784C247.998 154.205 247.893 154.655 247.893 155.136V155.909C247.893 156.568 248.007 157.127 248.234 157.585C248.465 158.04 248.786 158.386 249.195 158.625C249.604 158.86 250.079 158.977 250.621 158.977C250.973 158.977 251.291 158.928 251.575 158.83C251.863 158.727 252.111 158.576 252.32 158.375C252.528 158.17 252.689 157.917 252.803 157.614L254.098 157.977C253.962 158.417 253.732 158.803 253.411 159.136C253.089 159.466 252.691 159.723 252.217 159.909C251.744 160.091 251.212 160.182 250.621 160.182ZM260.07 151.273V152.409H255.547V151.273H260.07ZM256.865 149.182H258.206V157.5C258.206 157.879 258.261 158.163 258.371 158.352C258.484 158.538 258.628 158.663 258.803 158.727C258.981 158.788 259.168 158.818 259.365 158.818C259.513 158.818 259.634 158.811 259.729 158.795C259.823 158.777 259.899 158.761 259.956 158.75L260.229 159.955C260.138 159.989 260.011 160.023 259.848 160.057C259.685 160.095 259.479 160.114 259.229 160.114C258.85 160.114 258.479 160.032 258.115 159.869C257.755 159.706 257.456 159.458 257.217 159.125C256.982 158.792 256.865 158.371 256.865 157.864V149.182Z" fill="black"/>
<circle cx="197" cy="98" r="5" fill="#FF3E36"/>
<path d="M218.773 96H217.364C217.28 95.5947 217.134 95.2386 216.926 94.9318C216.722 94.625 216.472 94.3674 216.176 94.1591C215.884 93.947 215.561 93.7879 215.205 93.6818C214.848 93.5758 214.477 93.5227 214.091 93.5227C213.386 93.5227 212.748 93.7008 212.176 94.0568C211.608 94.4129 211.155 94.9375 210.818 95.6307C210.485 96.3239 210.318 97.1742 210.318 98.1818C210.318 99.1894 210.485 100.04 210.818 100.733C211.155 101.426 211.608 101.951 212.176 102.307C212.748 102.663 213.386 102.841 214.091 102.841C214.477 102.841 214.848 102.788 215.205 102.682C215.561 102.576 215.884 102.419 216.176 102.21C216.472 101.998 216.722 101.739 216.926 101.432C217.134 101.121 217.28 100.765 217.364 100.364H218.773C218.667 100.958 218.473 101.491 218.193 101.96C217.913 102.43 217.564 102.83 217.148 103.159C216.731 103.485 216.263 103.733 215.744 103.903C215.229 104.074 214.678 104.159 214.091 104.159C213.098 104.159 212.216 103.917 211.443 103.432C210.67 102.947 210.063 102.258 209.619 101.364C209.176 100.47 208.955 99.4091 208.955 98.1818C208.955 96.9545 209.176 95.8939 209.619 95C210.063 94.1061 210.67 93.4167 211.443 92.9318C212.216 92.447 213.098 92.2045 214.091 92.2045C214.678 92.2045 215.229 92.2898 215.744 92.4602C216.263 92.6307 216.731 92.8807 217.148 93.2102C217.564 93.536 217.913 93.9337 218.193 94.4034C218.473 94.8693 218.667 95.4015 218.773 96ZM222.209 98.75V104H220.868V92.3636H222.209V96.6364H222.322C222.527 96.1856 222.834 95.8277 223.243 95.5625C223.656 95.2936 224.205 95.1591 224.891 95.1591C225.485 95.1591 226.006 95.2784 226.453 95.517C226.9 95.7519 227.247 96.1136 227.493 96.6023C227.743 97.0871 227.868 97.7045 227.868 98.4545V104H226.527V98.5455C226.527 97.8523 226.347 97.3163 225.987 96.9375C225.631 96.5549 225.137 96.3636 224.504 96.3636C224.065 96.3636 223.671 96.4564 223.322 96.642C222.978 96.8277 222.705 97.0985 222.504 97.4545C222.307 97.8106 222.209 98.2424 222.209 98.75ZM233.98 104.182C233.139 104.182 232.414 103.996 231.804 103.625C231.198 103.25 230.73 102.727 230.401 102.057C230.075 101.383 229.912 100.598 229.912 99.7045C229.912 98.8106 230.075 98.0227 230.401 97.3409C230.73 96.6553 231.188 96.1212 231.776 95.7386C232.366 95.3523 233.056 95.1591 233.844 95.1591C234.298 95.1591 234.747 95.2348 235.19 95.3864C235.634 95.5379 236.037 95.7841 236.401 96.125C236.764 96.4621 237.054 96.9091 237.27 97.4659C237.486 98.0227 237.594 98.7083 237.594 99.5227V100.091H230.866V98.9318H236.23C236.23 98.4394 236.132 98 235.935 97.6136C235.741 97.2273 235.465 96.9223 235.105 96.6989C234.749 96.4754 234.329 96.3636 233.844 96.3636C233.31 96.3636 232.848 96.4962 232.457 96.7614C232.071 97.0227 231.774 97.3636 231.565 97.7841C231.357 98.2045 231.253 98.6553 231.253 99.1364V99.9091C231.253 100.568 231.366 101.127 231.594 101.585C231.825 102.04 232.145 102.386 232.554 102.625C232.963 102.86 233.438 102.977 233.98 102.977C234.332 102.977 234.651 102.928 234.935 102.83C235.223 102.727 235.471 102.576 235.679 102.375C235.887 102.17 236.048 101.917 236.162 101.614L237.457 101.977C237.321 102.417 237.092 102.803 236.77 103.136C236.448 103.466 236.05 103.723 235.577 103.909C235.103 104.091 234.571 104.182 233.98 104.182ZM243.156 107.455C242.509 107.455 241.952 107.371 241.486 107.205C241.02 107.042 240.632 106.826 240.321 106.557C240.014 106.292 239.77 106.008 239.588 105.705L240.656 104.955C240.777 105.114 240.931 105.295 241.116 105.5C241.302 105.708 241.556 105.888 241.878 106.04C242.204 106.195 242.63 106.273 243.156 106.273C243.861 106.273 244.442 106.102 244.901 105.761C245.359 105.42 245.588 104.886 245.588 104.159V102.386H245.474C245.376 102.545 245.236 102.742 245.054 102.977C244.876 103.208 244.618 103.415 244.281 103.597C243.948 103.775 243.497 103.864 242.929 103.864C242.224 103.864 241.592 103.697 241.031 103.364C240.474 103.03 240.033 102.545 239.707 101.909C239.385 101.273 239.224 100.5 239.224 99.5909C239.224 98.697 239.382 97.9186 239.696 97.2557C240.01 96.589 240.448 96.0739 241.009 95.7102C241.569 95.3428 242.217 95.1591 242.952 95.1591C243.52 95.1591 243.971 95.2538 244.304 95.4432C244.641 95.6288 244.899 95.8409 245.077 96.0795C245.259 96.3144 245.399 96.5076 245.497 96.6591H245.634V95.2727H246.929V104.25C246.929 105 246.759 105.61 246.418 106.08C246.08 106.553 245.626 106.9 245.054 107.119C244.486 107.343 243.853 107.455 243.156 107.455ZM243.111 102.659C243.649 102.659 244.103 102.536 244.474 102.29C244.846 102.044 245.128 101.689 245.321 101.227C245.514 100.765 245.611 100.212 245.611 99.5682C245.611 98.9394 245.516 98.3845 245.327 97.9034C245.137 97.4223 244.857 97.0455 244.486 96.7727C244.115 96.5 243.656 96.3636 243.111 96.3636C242.543 96.3636 242.069 96.5076 241.69 96.7955C241.315 97.0833 241.033 97.4697 240.844 97.9545C240.658 98.4394 240.565 98.9773 240.565 99.5682C240.565 100.174 240.66 100.71 240.849 101.176C241.043 101.638 241.327 102.002 241.702 102.267C242.08 102.528 242.55 102.659 243.111 102.659ZM252.906 107.455C252.259 107.455 251.702 107.371 251.236 107.205C250.77 107.042 250.382 106.826 250.071 106.557C249.764 106.292 249.52 106.008 249.338 105.705L250.406 104.955C250.527 105.114 250.681 105.295 250.866 105.5C251.052 105.708 251.306 105.888 251.628 106.04C251.954 106.195 252.38 106.273 252.906 106.273C253.611 106.273 254.192 106.102 254.651 105.761C255.109 105.42 255.338 104.886 255.338 104.159V102.386H255.224C255.126 102.545 254.986 102.742 254.804 102.977C254.626 103.208 254.368 103.415 254.031 103.597C253.698 103.775 253.247 103.864 252.679 103.864C251.974 103.864 251.342 103.697 250.781 103.364C250.224 103.03 249.783 102.545 249.457 101.909C249.135 101.273 248.974 100.5 248.974 99.5909C248.974 98.697 249.132 97.9186 249.446 97.2557C249.76 96.589 250.198 96.0739 250.759 95.7102C251.319 95.3428 251.967 95.1591 252.702 95.1591C253.27 95.1591 253.721 95.2538 254.054 95.4432C254.391 95.6288 254.649 95.8409 254.827 96.0795C255.009 96.3144 255.149 96.5076 255.247 96.6591H255.384V95.2727H256.679V104.25C256.679 105 256.509 105.61 256.168 106.08C255.83 106.553 255.376 106.9 254.804 107.119C254.236 107.343 253.603 107.455 252.906 107.455ZM252.861 102.659C253.399 102.659 253.853 102.536 254.224 102.29C254.596 102.044 254.878 101.689 255.071 101.227C255.264 100.765 255.361 100.212 255.361 99.5682C255.361 98.9394 255.266 98.3845 255.077 97.9034C254.887 97.4223 254.607 97.0455 254.236 96.7727C253.865 96.5 253.406 96.3636 252.861 96.3636C252.293 96.3636 251.819 96.5076 251.44 96.7955C251.065 97.0833 250.783 97.4697 250.594 97.9545C250.408 98.4394 250.315 98.9773 250.315 99.5682C250.315 100.174 250.41 100.71 250.599 101.176C250.793 101.638 251.077 102.002 251.452 102.267C251.83 102.528 252.3 102.659 252.861 102.659Z" fill="black"/>
<circle cx="197" cy="126" r="5" fill="#00ADB5"/>
<path d="M219.227 126.182C219.227 127.409 219.006 128.47 218.562 129.364C218.119 130.258 217.511 130.947 216.739 131.432C215.966 131.917 215.083 132.159 214.091 132.159C213.098 132.159 212.216 131.917 211.443 131.432C210.67 130.947 210.063 130.258 209.619 129.364C209.176 128.47 208.955 127.409 208.955 126.182C208.955 124.955 209.176 123.894 209.619 123C210.063 122.106 210.67 121.417 211.443 120.932C212.216 120.447 213.098 120.205 214.091 120.205C215.083 120.205 215.966 120.447 216.739 120.932C217.511 121.417 218.119 122.106 218.562 123C219.006 123.894 219.227 124.955 219.227 126.182ZM217.864 126.182C217.864 125.174 217.695 124.324 217.358 123.631C217.025 122.938 216.572 122.413 216 122.057C215.432 121.701 214.795 121.523 214.091 121.523C213.386 121.523 212.748 121.701 212.176 122.057C211.608 122.413 211.155 122.938 210.818 123.631C210.485 124.324 210.318 125.174 210.318 126.182C210.318 127.189 210.485 128.04 210.818 128.733C211.155 129.426 211.608 129.951 212.176 130.307C212.748 130.663 213.386 130.841 214.091 130.841C214.795 130.841 215.432 130.663 216 130.307C216.572 129.951 217.025 129.426 217.358 128.733C217.695 128.04 217.864 127.189 217.864 126.182ZM221.415 132V123.273H222.71V124.636H222.824C223.006 124.17 223.299 123.809 223.705 123.551C224.11 123.29 224.597 123.159 225.165 123.159C225.741 123.159 226.22 123.29 226.602 123.551C226.989 123.809 227.29 124.17 227.506 124.636H227.597C227.82 124.186 228.155 123.828 228.602 123.562C229.049 123.294 229.585 123.159 230.21 123.159C230.991 123.159 231.629 123.403 232.125 123.892C232.621 124.377 232.869 125.133 232.869 126.159V132H231.528V126.159C231.528 125.515 231.352 125.055 231 124.778C230.648 124.502 230.233 124.364 229.756 124.364C229.142 124.364 228.667 124.549 228.33 124.92C227.992 125.288 227.824 125.754 227.824 126.318V132H226.46V126.023C226.46 125.527 226.299 125.127 225.977 124.824C225.655 124.517 225.241 124.364 224.733 124.364C224.384 124.364 224.059 124.456 223.756 124.642C223.456 124.828 223.214 125.085 223.028 125.415C222.847 125.741 222.756 126.117 222.756 126.545V132H221.415ZM236.662 126.75V132H235.321V123.273H236.616V124.636H236.73C236.935 124.193 237.245 123.837 237.662 123.568C238.079 123.295 238.616 123.159 239.276 123.159C239.866 123.159 240.384 123.28 240.827 123.523C241.27 123.761 241.615 124.125 241.861 124.614C242.107 125.098 242.23 125.712 242.23 126.455V132H240.889V126.545C240.889 125.86 240.711 125.326 240.355 124.943C239.999 124.557 239.51 124.364 238.889 124.364C238.461 124.364 238.079 124.456 237.741 124.642C237.408 124.828 237.145 125.098 236.952 125.455C236.759 125.811 236.662 126.242 236.662 126.75ZM244.68 132V123.273H246.021V132H244.68ZM245.362 121.818C245.101 121.818 244.875 121.729 244.686 121.551C244.5 121.373 244.408 121.159 244.408 120.909C244.408 120.659 244.5 120.445 244.686 120.267C244.875 120.089 245.101 120 245.362 120C245.624 120 245.847 120.089 246.033 120.267C246.222 120.445 246.317 120.659 246.317 120.909C246.317 121.159 246.222 121.373 246.033 121.551C245.847 121.729 245.624 121.818 245.362 121.818ZM254.659 125.227L253.455 125.568C253.379 125.367 253.267 125.172 253.119 124.983C252.975 124.79 252.778 124.631 252.528 124.506C252.278 124.381 251.958 124.318 251.568 124.318C251.034 124.318 250.589 124.441 250.233 124.688C249.881 124.93 249.705 125.239 249.705 125.614C249.705 125.947 249.826 126.21 250.068 126.403C250.311 126.597 250.689 126.758 251.205 126.886L252.5 127.205C253.28 127.394 253.862 127.684 254.244 128.074C254.627 128.46 254.818 128.958 254.818 129.568C254.818 130.068 254.674 130.515 254.386 130.909C254.102 131.303 253.705 131.614 253.193 131.841C252.682 132.068 252.087 132.182 251.409 132.182C250.519 132.182 249.782 131.989 249.199 131.602C248.616 131.216 248.246 130.652 248.091 129.909L249.364 129.591C249.485 130.061 249.714 130.413 250.051 130.648C250.392 130.883 250.837 131 251.386 131C252.011 131 252.508 130.867 252.875 130.602C253.246 130.333 253.432 130.011 253.432 129.636C253.432 129.333 253.326 129.08 253.114 128.875C252.902 128.667 252.576 128.511 252.136 128.409L250.682 128.068C249.883 127.879 249.295 127.585 248.92 127.188C248.549 126.786 248.364 126.284 248.364 125.682C248.364 125.189 248.502 124.754 248.778 124.375C249.059 123.996 249.439 123.699 249.92 123.483C250.405 123.267 250.955 123.159 251.568 123.159C252.432 123.159 253.11 123.348 253.602 123.727C254.098 124.106 254.451 124.606 254.659 125.227ZM260.632 123.273V124.409H256.109V123.273H260.632ZM257.428 121.182H258.768V129.5C258.768 129.879 258.823 130.163 258.933 130.352C259.047 130.538 259.191 130.663 259.365 130.727C259.543 130.788 259.731 130.818 259.928 130.818C260.075 130.818 260.196 130.811 260.291 130.795C260.386 130.777 260.462 130.761 260.518 130.75L260.791 131.955C260.7 131.989 260.573 132.023 260.411 132.057C260.248 132.095 260.041 132.114 259.791 132.114C259.412 132.114 259.041 132.032 258.678 131.869C258.318 131.706 258.018 131.458 257.78 131.125C257.545 130.792 257.428 130.371 257.428 129.864V121.182ZM268.149 128.432V123.273H269.49V132H268.149V130.523H268.058C267.854 130.966 267.536 131.343 267.104 131.653C266.672 131.96 266.126 132.114 265.467 132.114C264.922 132.114 264.437 131.994 264.013 131.756C263.589 131.513 263.255 131.15 263.013 130.665C262.77 130.176 262.649 129.561 262.649 128.818V123.273H263.99V128.727C263.99 129.364 264.168 129.871 264.524 130.25C264.884 130.629 265.342 130.818 265.899 130.818C266.232 130.818 266.571 130.733 266.916 130.562C267.265 130.392 267.556 130.131 267.791 129.778C268.03 129.426 268.149 128.977 268.149 128.432ZM275.241 132.182C274.514 132.182 273.872 131.998 273.315 131.631C272.759 131.259 272.323 130.737 272.009 130.062C271.694 129.384 271.537 128.583 271.537 127.659C271.537 126.742 271.694 125.947 272.009 125.273C272.323 124.598 272.76 124.078 273.321 123.71C273.882 123.343 274.529 123.159 275.264 123.159C275.832 123.159 276.281 123.254 276.611 123.443C276.944 123.629 277.198 123.841 277.372 124.08C277.55 124.314 277.688 124.508 277.787 124.659H277.901V120.364H279.241V132H277.946V130.659H277.787C277.688 130.818 277.548 131.019 277.366 131.261C277.185 131.5 276.925 131.714 276.588 131.903C276.251 132.089 275.802 132.182 275.241 132.182ZM275.423 130.977C275.961 130.977 276.416 130.837 276.787 130.557C277.158 130.273 277.44 129.881 277.634 129.381C277.827 128.877 277.923 128.295 277.923 127.636C277.923 126.985 277.829 126.415 277.639 125.926C277.45 125.434 277.17 125.051 276.798 124.778C276.427 124.502 275.969 124.364 275.423 124.364C274.855 124.364 274.382 124.509 274.003 124.801C273.628 125.089 273.346 125.481 273.156 125.977C272.971 126.47 272.878 127.023 272.878 127.636C272.878 128.258 272.973 128.822 273.162 129.33C273.355 129.833 273.639 130.235 274.014 130.534C274.393 130.83 274.863 130.977 275.423 130.977ZM282.747 135.273C282.52 135.273 282.317 135.254 282.139 135.216C281.961 135.182 281.838 135.148 281.77 135.114L282.111 133.932C282.437 134.015 282.724 134.045 282.974 134.023C283.224 134 283.446 133.888 283.639 133.688C283.836 133.491 284.016 133.17 284.179 132.727L284.429 132.045L281.202 123.273H282.656L285.065 130.227H285.156L287.565 123.273H289.02L285.315 133.273C285.149 133.723 284.942 134.097 284.696 134.392C284.45 134.691 284.164 134.913 283.838 135.057C283.516 135.201 283.152 135.273 282.747 135.273Z" fill="black"/>
<path fill-rule="evenodd" clip-rule="evenodd" d="M154.5 122.5C154.5 152.876 129.876 177.5 99.5 177.5C69.1243 177.5 44.5 152.876 44.5 122.5C44.5 92.1243 69.1243 67.5 99.5 67.5C129.876 67.5 154.5 92.1243 154.5 122.5ZM162 122.5C162 157.018 134.018 185 99.5 185C64.9822 185 37 157.018 37 122.5C37 87.9822 64.9822 60 99.5 60C134.018 60 162 87.9822 162 122.5ZM99.5 129.375C103.297 129.375 106.375 126.297 106.375 122.5C106.375 118.703 103.297 115.625 99.5 115.625C95.7031 115.625 92.625 118.703 92.625 122.5C92.625 126.297 95.7031 129.375 99.5 129.375Z" fill="#00ADB5"/>
<rect x="60" y="89" width="78" height="68" fill="#F5F5F5"/>
</svg>
