<svg width="353" height="252" viewBox="0 0 353 252" fill="none" xmlns="http://www.w3.org/2000/svg">
<rect x="1" width="352" height="252" rx="10" fill="#F5F5F5"/>
<path d="M1 161.5L92.5 126L156.5 120L219 103L288 53.5L353 29V242C353 247.523 348.523 252 343 252H11C5.47714 252 1 247.523 1 242V161.5Z" fill="#00ADB5" fill-opacity="0.2"/>
<line x1="287.821" y1="53.5333" x2="352.82" y2="28.5333" stroke="#00ADB5"/>
<line x1="217.709" y1="103.593" x2="287.709" y2="53.5931" stroke="#00ADB5"/>
<line x1="155.875" y1="119.516" x2="217.875" y2="103.516" stroke="#00ADB5"/>
<line x1="92.9526" y1="125.502" x2="155.953" y2="119.502" stroke="#00ADB5"/>
<line x1="0.813436" y1="162.536" x2="92.8134" y2="125.536" stroke="#00ADB5"/>
<line x1="92.75" y1="252" x2="92.75" stroke="black" stroke-opacity="0.2" stroke-width="0.5" stroke-dasharray="2 2"/>
<circle cx="93" cy="125" r="4" fill="#00ADB5" stroke="white" stroke-width="2"/>
<rect x="101" y="100" width="117" height="50" rx="5" fill="white"/>
<rect x="101.5" y="100.5" width="116" height="49" rx="4.5" stroke="black" stroke-opacity="0.2"/>
<path d="M125.972 111.273V120H124.915V112.381H124.864L122.733 113.795V112.722L124.915 111.273H125.972ZM131.328 120.119C130.686 120.119 130.139 119.945 129.688 119.595C129.236 119.243 128.891 118.733 128.652 118.065C128.413 117.395 128.294 116.585 128.294 115.636C128.294 114.693 128.413 113.888 128.652 113.22C128.893 112.55 129.24 112.038 129.692 111.686C130.146 111.331 130.692 111.153 131.328 111.153C131.964 111.153 132.509 111.331 132.96 111.686C133.415 112.038 133.761 112.55 134 113.22C134.241 113.888 134.362 114.693 134.362 115.636C134.362 116.585 134.243 117.395 134.004 118.065C133.766 118.733 133.42 119.243 132.969 119.595C132.517 119.945 131.97 120.119 131.328 120.119ZM131.328 119.182C131.964 119.182 132.459 118.875 132.811 118.261C133.163 117.648 133.339 116.773 133.339 115.636C133.339 114.881 133.259 114.237 133.097 113.706C132.938 113.175 132.707 112.77 132.406 112.491C132.108 112.213 131.749 112.074 131.328 112.074C130.697 112.074 130.205 112.385 129.849 113.007C129.494 113.626 129.317 114.503 129.317 115.636C129.317 116.392 129.396 117.034 129.555 117.562C129.714 118.091 129.943 118.493 130.241 118.768C130.543 119.044 130.905 119.182 131.328 119.182ZM137.194 118.807L137.126 119.267C137.077 119.591 137.004 119.938 136.904 120.307C136.808 120.676 136.707 121.024 136.602 121.351C136.496 121.678 136.41 121.938 136.342 122.131H135.575C135.612 121.949 135.66 121.709 135.719 121.411C135.779 121.112 135.839 120.778 135.898 120.409C135.961 120.043 136.012 119.668 136.052 119.284L136.103 118.807H137.194ZM141.582 120.119C140.94 120.119 140.393 119.945 139.941 119.595C139.49 119.243 139.145 118.733 138.906 118.065C138.667 117.395 138.548 116.585 138.548 115.636C138.548 114.693 138.667 113.888 138.906 113.22C139.147 112.55 139.494 112.038 139.946 111.686C140.4 111.331 140.946 111.153 141.582 111.153C142.218 111.153 142.762 111.331 143.214 111.686C143.669 112.038 144.015 112.55 144.254 113.22C144.495 113.888 144.616 114.693 144.616 115.636C144.616 116.585 144.497 117.395 144.258 118.065C144.02 118.733 143.674 119.243 143.223 119.595C142.771 119.945 142.224 120.119 141.582 120.119ZM141.582 119.182C142.218 119.182 142.713 118.875 143.065 118.261C143.417 117.648 143.593 116.773 143.593 115.636C143.593 114.881 143.512 114.237 143.35 113.706C143.191 113.175 142.961 112.77 142.66 112.491C142.362 112.213 142.002 112.074 141.582 112.074C140.951 112.074 140.458 112.385 140.103 113.007C139.748 113.626 139.571 114.503 139.571 115.636C139.571 116.392 139.65 117.034 139.809 117.562C139.968 118.091 140.197 118.493 140.495 118.768C140.797 119.044 141.159 119.182 141.582 119.182ZM149.082 120.119C148.44 120.119 147.893 119.945 147.441 119.595C146.99 119.243 146.645 118.733 146.406 118.065C146.167 117.395 146.048 116.585 146.048 115.636C146.048 114.693 146.167 113.888 146.406 113.22C146.647 112.55 146.994 112.038 147.446 111.686C147.9 111.331 148.446 111.153 149.082 111.153C149.718 111.153 150.262 111.331 150.714 111.686C151.169 112.038 151.515 112.55 151.754 113.22C151.995 113.888 152.116 114.693 152.116 115.636C152.116 116.585 151.997 117.395 151.758 118.065C151.52 118.733 151.174 119.243 150.723 119.595C150.271 119.945 149.724 120.119 149.082 120.119ZM149.082 119.182C149.718 119.182 150.213 118.875 150.565 118.261C150.917 117.648 151.093 116.773 151.093 115.636C151.093 114.881 151.012 114.237 150.85 113.706C150.691 113.175 150.461 112.77 150.16 112.491C149.862 112.213 149.502 112.074 149.082 112.074C148.451 112.074 147.958 112.385 147.603 113.007C147.248 113.626 147.071 114.503 147.071 115.636C147.071 116.392 147.15 117.034 147.309 117.562C147.468 118.091 147.697 118.493 147.995 118.768C148.297 119.044 148.659 119.182 149.082 119.182ZM156.582 120.119C155.94 120.119 155.393 119.945 154.941 119.595C154.49 119.243 154.145 118.733 153.906 118.065C153.667 117.395 153.548 116.585 153.548 115.636C153.548 114.693 153.667 113.888 153.906 113.22C154.147 112.55 154.494 112.038 154.946 111.686C155.4 111.331 155.946 111.153 156.582 111.153C157.218 111.153 157.762 111.331 158.214 111.686C158.669 112.038 159.015 112.55 159.254 113.22C159.495 113.888 159.616 114.693 159.616 115.636C159.616 116.585 159.497 117.395 159.258 118.065C159.02 118.733 158.674 119.243 158.223 119.595C157.771 119.945 157.224 120.119 156.582 120.119ZM156.582 119.182C157.218 119.182 157.713 118.875 158.065 118.261C158.417 117.648 158.593 116.773 158.593 115.636C158.593 114.881 158.512 114.237 158.35 113.706C158.191 113.175 157.961 112.77 157.66 112.491C157.362 112.213 157.002 112.074 156.582 112.074C155.951 112.074 155.458 112.385 155.103 113.007C154.748 113.626 154.571 114.503 154.571 115.636C154.571 116.392 154.65 117.034 154.809 117.562C154.968 118.091 155.197 118.493 155.495 118.768C155.797 119.044 156.159 119.182 156.582 119.182ZM170.491 111.273H171.548V117.051C171.548 117.648 171.407 118.18 171.126 118.649C170.848 119.115 170.454 119.483 169.946 119.753C169.437 120.02 168.841 120.153 168.156 120.153C167.471 120.153 166.875 120.02 166.366 119.753C165.858 119.483 165.463 119.115 165.181 118.649C164.903 118.18 164.764 117.648 164.764 117.051V111.273H165.821V116.966C165.821 117.392 165.914 117.771 166.102 118.104C166.289 118.433 166.556 118.693 166.903 118.884C167.252 119.071 167.67 119.165 168.156 119.165C168.642 119.165 169.059 119.071 169.409 118.884C169.758 118.693 170.025 118.433 170.21 118.104C170.397 117.771 170.491 117.392 170.491 116.966V111.273ZM178.158 114.92L177.255 115.176C177.198 115.026 177.114 114.879 177.004 114.737C176.896 114.592 176.748 114.473 176.56 114.379C176.373 114.286 176.133 114.239 175.84 114.239C175.44 114.239 175.106 114.331 174.839 114.516C174.575 114.697 174.442 114.929 174.442 115.21C174.442 115.46 174.533 115.658 174.715 115.803C174.897 115.947 175.181 116.068 175.567 116.165L176.539 116.403C177.124 116.545 177.56 116.763 177.847 117.055C178.134 117.345 178.278 117.719 178.278 118.176C178.278 118.551 178.17 118.886 177.954 119.182C177.741 119.477 177.442 119.71 177.059 119.881C176.675 120.051 176.229 120.136 175.721 120.136C175.053 120.136 174.501 119.991 174.063 119.702C173.626 119.412 173.349 118.989 173.232 118.432L174.187 118.193C174.278 118.545 174.45 118.81 174.702 118.986C174.958 119.162 175.292 119.25 175.704 119.25C176.173 119.25 176.545 119.151 176.82 118.952C177.099 118.75 177.238 118.509 177.238 118.227C177.238 118 177.158 117.81 176.999 117.656C176.84 117.5 176.596 117.384 176.266 117.307L175.175 117.051C174.576 116.909 174.136 116.689 173.854 116.391C173.576 116.089 173.437 115.713 173.437 115.261C173.437 114.892 173.54 114.565 173.748 114.281C173.958 113.997 174.244 113.774 174.604 113.612C174.968 113.45 175.38 113.369 175.84 113.369C176.488 113.369 176.996 113.511 177.366 113.795C177.738 114.08 178.002 114.455 178.158 114.92ZM182.536 120.136C181.905 120.136 181.361 119.997 180.904 119.719C180.449 119.438 180.098 119.045 179.851 118.543C179.607 118.037 179.485 117.449 179.485 116.778C179.485 116.108 179.607 115.517 179.851 115.006C180.098 114.491 180.442 114.091 180.882 113.804C181.326 113.514 181.843 113.369 182.434 113.369C182.775 113.369 183.111 113.426 183.444 113.54C183.776 113.653 184.078 113.838 184.351 114.094C184.624 114.347 184.841 114.682 185.003 115.099C185.165 115.517 185.246 116.031 185.246 116.642V117.068H180.201V116.199H184.223C184.223 115.83 184.15 115.5 184.002 115.21C183.857 114.92 183.65 114.692 183.38 114.524C183.113 114.357 182.797 114.273 182.434 114.273C182.033 114.273 181.686 114.372 181.394 114.571C181.104 114.767 180.881 115.023 180.725 115.338C180.569 115.653 180.49 115.991 180.49 116.352V116.932C180.49 117.426 180.576 117.845 180.746 118.189C180.919 118.53 181.159 118.79 181.466 118.969C181.773 119.145 182.13 119.233 182.536 119.233C182.8 119.233 183.039 119.196 183.252 119.122C183.468 119.045 183.654 118.932 183.81 118.781C183.966 118.628 184.087 118.437 184.172 118.21L185.144 118.483C185.042 118.812 184.87 119.102 184.628 119.352C184.387 119.599 184.088 119.793 183.733 119.932C183.378 120.068 182.979 120.136 182.536 120.136ZM186.776 120V113.455H187.748V114.443H187.816C187.935 114.119 188.151 113.857 188.463 113.655C188.776 113.453 189.128 113.352 189.52 113.352C189.594 113.352 189.686 113.354 189.797 113.357C189.908 113.359 189.992 113.364 190.049 113.369V114.392C190.015 114.384 189.936 114.371 189.814 114.354C189.695 114.334 189.569 114.324 189.435 114.324C189.117 114.324 188.833 114.391 188.583 114.524C188.336 114.655 188.14 114.837 187.995 115.07C187.853 115.3 187.782 115.562 187.782 115.858V120H186.776ZM195.877 114.92L194.974 115.176C194.917 115.026 194.833 114.879 194.722 114.737C194.614 114.592 194.467 114.473 194.279 114.379C194.092 114.286 193.852 114.239 193.559 114.239C193.158 114.239 192.825 114.331 192.558 114.516C192.293 114.697 192.161 114.929 192.161 115.21C192.161 115.46 192.252 115.658 192.434 115.803C192.616 115.947 192.9 116.068 193.286 116.165L194.258 116.403C194.843 116.545 195.279 116.763 195.566 117.055C195.853 117.345 195.996 117.719 195.996 118.176C195.996 118.551 195.888 118.886 195.673 119.182C195.46 119.477 195.161 119.71 194.778 119.881C194.394 120.051 193.948 120.136 193.44 120.136C192.772 120.136 192.219 119.991 191.782 119.702C191.344 119.412 191.067 118.989 190.951 118.432L191.906 118.193C191.996 118.545 192.168 118.81 192.421 118.986C192.677 119.162 193.011 119.25 193.423 119.25C193.891 119.25 194.263 119.151 194.539 118.952C194.817 118.75 194.957 118.509 194.957 118.227C194.957 118 194.877 117.81 194.718 117.656C194.559 117.5 194.315 117.384 193.985 117.307L192.894 117.051C192.295 116.909 191.854 116.689 191.573 116.391C191.295 116.089 191.156 115.713 191.156 115.261C191.156 114.892 191.259 114.565 191.467 114.281C191.677 113.997 191.962 113.774 192.323 113.612C192.687 113.45 193.099 113.369 193.559 113.369C194.207 113.369 194.715 113.511 195.085 113.795C195.457 114.08 195.721 114.455 195.877 114.92Z" fill="black" fill-opacity="0.5"/>
<path d="M129 131L133.33 138.5H124.67L129 131Z" fill="#00ADB5"/>
<path d="M139.205 141V139.977L143.045 135.773C143.496 135.28 143.867 134.852 144.159 134.489C144.451 134.121 144.667 133.777 144.807 133.455C144.951 133.129 145.023 132.788 145.023 132.432C145.023 132.023 144.924 131.669 144.727 131.369C144.534 131.07 144.269 130.839 143.932 130.676C143.595 130.513 143.216 130.432 142.795 130.432C142.348 130.432 141.958 130.525 141.625 130.71C141.295 130.892 141.04 131.148 140.858 131.477C140.68 131.807 140.591 132.193 140.591 132.636H139.25C139.25 131.955 139.407 131.356 139.722 130.841C140.036 130.326 140.464 129.924 141.006 129.636C141.551 129.348 142.163 129.205 142.841 129.205C143.523 129.205 144.127 129.348 144.653 129.636C145.18 129.924 145.593 130.312 145.892 130.801C146.191 131.29 146.341 131.833 146.341 132.432C146.341 132.86 146.263 133.278 146.108 133.688C145.956 134.093 145.691 134.545 145.312 135.045C144.938 135.542 144.417 136.148 143.75 136.864L141.136 139.659V139.75H146.545V141H139.205ZM152.528 141.159C151.862 141.159 151.261 141.027 150.727 140.761C150.193 140.496 149.765 140.133 149.443 139.67C149.121 139.208 148.945 138.682 148.915 138.091H150.278C150.331 138.617 150.57 139.053 150.994 139.398C151.422 139.739 151.934 139.909 152.528 139.909C153.006 139.909 153.43 139.797 153.801 139.574C154.176 139.35 154.47 139.044 154.682 138.653C154.898 138.259 155.006 137.814 155.006 137.318C155.006 136.811 154.894 136.358 154.67 135.96C154.451 135.559 154.148 135.242 153.761 135.011C153.375 134.78 152.934 134.663 152.438 134.659C152.081 134.655 151.716 134.71 151.341 134.824C150.966 134.934 150.657 135.076 150.415 135.25L149.097 135.091L149.801 129.364H155.847V130.614H150.983L150.574 134.045H150.642C150.881 133.856 151.18 133.699 151.54 133.574C151.9 133.449 152.275 133.386 152.665 133.386C153.377 133.386 154.011 133.557 154.568 133.898C155.129 134.235 155.568 134.697 155.886 135.284C156.208 135.871 156.369 136.542 156.369 137.295C156.369 138.038 156.203 138.701 155.869 139.284C155.54 139.864 155.085 140.322 154.506 140.659C153.926 140.992 153.267 141.159 152.528 141.159ZM159.189 141.091C158.909 141.091 158.668 140.991 158.467 140.79C158.267 140.589 158.166 140.348 158.166 140.068C158.166 139.788 158.267 139.547 158.467 139.347C158.668 139.146 158.909 139.045 159.189 139.045C159.469 139.045 159.71 139.146 159.911 139.347C160.111 139.547 160.212 139.788 160.212 140.068C160.212 140.254 160.164 140.424 160.07 140.58C159.979 140.735 159.856 140.86 159.7 140.955C159.549 141.045 159.378 141.091 159.189 141.091ZM166.089 141.159C165.339 141.159 164.671 141.03 164.084 140.773C163.5 140.515 163.036 140.157 162.692 139.699C162.351 139.237 162.165 138.701 162.135 138.091H163.567C163.597 138.466 163.726 138.79 163.953 139.062C164.18 139.331 164.478 139.54 164.845 139.688C165.213 139.835 165.62 139.909 166.067 139.909C166.567 139.909 167.01 139.822 167.396 139.648C167.783 139.473 168.086 139.231 168.305 138.92C168.525 138.61 168.635 138.25 168.635 137.841C168.635 137.413 168.529 137.036 168.317 136.71C168.105 136.381 167.794 136.123 167.385 135.938C166.976 135.752 166.476 135.659 165.885 135.659H164.953V134.409H165.885C166.347 134.409 166.752 134.326 167.101 134.159C167.453 133.992 167.728 133.758 167.925 133.455C168.125 133.152 168.226 132.795 168.226 132.386C168.226 131.992 168.139 131.65 167.964 131.358C167.79 131.066 167.544 130.839 167.226 130.676C166.911 130.513 166.54 130.432 166.112 130.432C165.711 130.432 165.332 130.506 164.976 130.653C164.624 130.797 164.336 131.008 164.112 131.284C163.889 131.557 163.768 131.886 163.749 132.273H162.385C162.408 131.663 162.591 131.129 162.936 130.67C163.281 130.208 163.732 129.848 164.288 129.591C164.849 129.333 165.464 129.205 166.135 129.205C166.855 129.205 167.472 129.35 167.987 129.642C168.502 129.93 168.898 130.311 169.175 130.784C169.451 131.258 169.589 131.769 169.589 132.318C169.589 132.973 169.417 133.532 169.072 133.994C168.732 134.456 168.268 134.777 167.68 134.955V135.045C168.415 135.167 168.989 135.479 169.402 135.983C169.815 136.483 170.021 137.102 170.021 137.841C170.021 138.473 169.849 139.042 169.504 139.545C169.163 140.045 168.697 140.439 168.107 140.727C167.516 141.015 166.843 141.159 166.089 141.159ZM172.345 141V139.977L176.186 135.773C176.637 135.28 177.008 134.852 177.3 134.489C177.591 134.121 177.807 133.777 177.947 133.455C178.091 133.129 178.163 132.788 178.163 132.432C178.163 132.023 178.065 131.669 177.868 131.369C177.675 131.07 177.41 130.839 177.072 130.676C176.735 130.513 176.357 130.432 175.936 130.432C175.489 130.432 175.099 130.525 174.766 130.71C174.436 130.892 174.18 131.148 173.999 131.477C173.821 131.807 173.732 132.193 173.732 132.636H172.391C172.391 131.955 172.548 131.356 172.862 130.841C173.177 130.326 173.605 129.924 174.146 129.636C174.692 129.348 175.304 129.205 175.982 129.205C176.663 129.205 177.268 129.348 177.794 129.636C178.321 129.924 178.733 130.312 179.033 130.801C179.332 131.29 179.482 131.833 179.482 132.432C179.482 132.86 179.404 133.278 179.249 133.688C179.097 134.093 178.832 134.545 178.453 135.045C178.078 135.542 177.557 136.148 176.891 136.864L174.277 139.659V139.75H179.686V141H172.345ZM187.964 138.818V138.205C187.964 137.78 188.052 137.392 188.226 137.04C188.404 136.684 188.661 136.4 188.999 136.188C189.339 135.972 189.752 135.864 190.237 135.864C190.73 135.864 191.143 135.972 191.476 136.188C191.809 136.4 192.061 136.684 192.232 137.04C192.402 137.392 192.487 137.78 192.487 138.205V138.818C192.487 139.242 192.4 139.633 192.226 139.989C192.055 140.341 191.802 140.625 191.464 140.841C191.131 141.053 190.722 141.159 190.237 141.159C189.745 141.159 189.33 141.053 188.993 140.841C188.656 140.625 188.4 140.341 188.226 139.989C188.052 139.633 187.964 139.242 187.964 138.818ZM189.124 138.205V138.818C189.124 139.17 189.207 139.487 189.374 139.767C189.54 140.044 189.828 140.182 190.237 140.182C190.635 140.182 190.915 140.044 191.078 139.767C191.245 139.487 191.328 139.17 191.328 138.818V138.205C191.328 137.852 191.249 137.538 191.089 137.261C190.93 136.981 190.646 136.841 190.237 136.841C189.839 136.841 189.554 136.981 189.379 137.261C189.209 137.538 189.124 137.852 189.124 138.205ZM182.169 132.159V131.545C182.169 131.121 182.256 130.733 182.43 130.381C182.608 130.025 182.866 129.741 183.203 129.528C183.544 129.312 183.957 129.205 184.442 129.205C184.934 129.205 185.347 129.312 185.68 129.528C186.014 129.741 186.266 130.025 186.436 130.381C186.607 130.733 186.692 131.121 186.692 131.545V132.159C186.692 132.583 186.605 132.973 186.43 133.33C186.26 133.682 186.006 133.966 185.669 134.182C185.336 134.394 184.927 134.5 184.442 134.5C183.949 134.5 183.535 134.394 183.197 134.182C182.86 133.966 182.605 133.682 182.43 133.33C182.256 132.973 182.169 132.583 182.169 132.159ZM183.328 131.545V132.159C183.328 132.511 183.411 132.828 183.578 133.108C183.745 133.384 184.033 133.523 184.442 133.523C184.839 133.523 185.12 133.384 185.283 133.108C185.449 132.828 185.533 132.511 185.533 132.159V131.545C185.533 131.193 185.453 130.879 185.294 130.602C185.135 130.322 184.851 130.182 184.442 130.182C184.044 130.182 183.758 130.322 183.584 130.602C183.413 130.879 183.328 131.193 183.328 131.545ZM182.601 141L190.601 129.364H191.896L183.896 141H182.601Z" fill="black"/>
</svg>
